<?xml version="1.0" encoding="UTF-8" standalone="no"?><!DOCTYPE svg PUBLIC "-//W3C//DTD SVG 1.1//EN" "http://www.w3.org/Graphics/SVG/1.1/DTD/svg11.dtd"><svg width="100%" height="100%" viewBox="0 0 3508 2481" version="1.1" xmlns="http://www.w3.org/2000/svg" xmlns:xlink="http://www.w3.org/1999/xlink" xml:space="preserve" xmlns:serif="http://www.serif.com/" style="fill-rule:evenodd;clip-rule:evenodd;stroke-linejoin:round;stroke-miterlimit:2;"><g><path d="M1906.68,1272.98c-2.038,-9.584 -3.111,-19.524 -3.111,-29.712c0,-78.579 63.796,-142.374 142.375,-142.374c40.576,-0 77.21,17.011 103.154,44.284l-40.162,21.173c-17.155,-14.07 -39.095,-22.519 -62.992,-22.519c-54.881,0 -99.436,44.556 -99.436,99.436c-0,2.872 0.122,5.715 0.361,8.525l-40.189,21.187Z" style="fill:#fff;"/><path d="M2166.12,1207.34c2.038,9.584 3.11,19.524 3.11,29.712c0,78.578 -63.796,142.374 -142.374,142.374c-40.577,0 -77.211,-17.011 -103.155,-44.284l40.162,-21.173c17.156,14.07 39.095,22.519 62.993,22.519c54.88,-0 99.435,-44.556 99.435,-99.436c0,-2.872 -0.122,-5.715 -0.361,-8.525l40.19,-21.187Z" style="fill:#fff;"/><path d="M1650.73,1379.41l-46.748,0.017l-0.093,-278.521l39.933,-0.016l192.847,198.703l-0.334,-198.624l46.748,-0.079l0.43,278.387l-39.857,0l-192.999,-198.761l0.073,198.894Z" style="fill:#fff;"/><path d="M1035.37,1100.89l46.748,-0l2.453,197.869l28.436,33.77l138.382,0l0,46.748l-160.132,0l-53.434,-63.457l-2.453,-214.93Z" style="fill:#fff;"/><path d="M1005.13,1100.9l0,46.748c0,0 -157.276,0.01 -178.524,0.011c-1.636,-0 -3.265,0.219 -4.842,0.653c-18.738,5.204 -33.898,13.804 -43.809,27.864c-11.337,16.083 -15.563,38.5 -13.157,68.327l0.056,0.694l0.014,0.696c0.66,31.518 6.908,56.408 24.123,71.371c10.773,9.363 25.627,14.246 44.74,15.259l121.931,0.001l0,-59.615l-73.225,-0l-0,-46.748l119.973,-0l-0,153.11l-169.863,0l-0.573,-0.028c-31.757,-1.559 -55.825,-11.204 -73.649,-26.696c-25.709,-22.344 -39.073,-58.022 -40.168,-104.838c-3.387,-43.158 5.148,-75.143 21.589,-98.467c17.056,-24.196 42.961,-39.78 76.286,-47.707c-0,-0 2.013,-0.479 2.541,-0.605c0.084,-0.02 0.169,-0.03 0.255,-0.03c5.52,0 186.302,0 186.302,0Z" style="fill:#fff;"/><path d="M1338.01,1254.3l0,60.174l-0.057,0.813c-0.467,6.693 -0.928,12.003 2.098,15.203c2.759,2.919 7.531,2.444 13.574,2.081l0.701,-0.043l206.021,0l-0,46.748l-204.513,-0.007c-23.015,1.253 -39.188,-5.488 -49.754,-16.664c-10.258,-10.851 -16.219,-27.192 -14.818,-49.709l0,-72.805l0.001,-73.502c-0.059,-20.893 5.797,-36.706 15.766,-47.571c10.442,-11.381 25.975,-18.52 48.211,-18.113l205.107,0l-0,46.748l-205.565,0l-0.246,-0.005c-5.794,-0.122 -10.348,0.017 -13.062,2.975c-3.225,3.514 -3.483,9.078 -3.464,15.868l0,41.061l167.388,0l-0,46.748l-167.388,0Z" style="fill:#fff;"/><path d="M2320.87,1254.3l-79.812,0l-0,124.976l-46.748,0l-0,-278.371l198.651,0l3.526,1.148c13.201,4.298 22.808,9.47 30.068,17.279c9.839,10.582 16.585,27.368 16.585,61.365c0,27.449 -6.078,44.019 -17.829,55.035c-9.947,9.325 -25.765,15.491 -51.766,17.985l67.963,125.559l-51.224,0.142l-69.414,-125.118Zm-79.812,-46.749l123.737,-0.006c8.881,-0.635 16.087,-1.511 21.885,-3.073c2.799,-0.754 5.097,-1.381 6.659,-2.845c1.42,-1.331 1.619,-3.383 2.054,-5.796c0.769,-4.264 1,-9.268 1,-15.134c-0,-8.448 -0.359,-15.252 -1.257,-20.791c-0.644,-3.97 -1.064,-6.857 -2.817,-8.743c-1.657,-1.781 -3.933,-2.665 -6.612,-3.51l-144.649,0l-0,59.898Z" style="fill:#fff;"/><path d="M2471.36,1240.09c0,-50.954 10.437,-86.225 31.729,-108.63c15.341,-16.144 36.495,-26.518 65.412,-30.353l1.53,-0.203l155.697,0l-0,46.748l-152.581,0.005c-15.708,2.274 -27.713,7.105 -36.171,16.005c-14.811,15.586 -18.868,40.984 -18.868,76.428c0,35.521 4.045,60.903 18.855,76.461c8.461,8.889 20.473,13.699 36.219,15.976l152.546,0l-0,46.748l-155.697,0l-1.53,-0.202c-28.912,-3.834 -50.061,-14.178 -65.399,-30.291c-21.293,-22.371 -31.742,-57.618 -31.742,-108.692Z" style="fill:#fff;"/><path d="M2824.8,1254.3l0,124.976l-46.748,0l0,-278.371l46.748,0l0,106.647l169.616,0l-0,-106.647l46.747,0l0,278.371l-46.747,0l-0,-124.976l-169.616,0Z" style="fill:#fff;"/><path d="M3225.39,1239.82l-0,139.461l-46.748,0l-0,-139.876l-115.62,-138.495l60.897,0l78.655,94.217l83.776,-94.217l62.556,0l-123.516,138.91Z" style="fill:#fff;"/><g><path d="M337.69,1150.92l-178.721,-0l0,-51.634l178.721,-0c67.751,4.044 101.461,31.279 99.725,82.662c-0.638,47.528 -17.855,75.755 -51.619,84.715c41.738,33.222 80.633,55.437 115.228,61.003c43.51,5.349 70.647,0.492 75.692,-18.135c7.86,-18.137 -16.669,-36.076 -53.564,-48.318c-10.707,-3.552 -25.156,-10.977 -36.128,-17.539c-24.789,-14.824 -33.959,-35.534 -34.258,-63.25c4.015,-42.109 22.269,-64.094 49.163,-73.869c43.296,-15.025 86.006,-13.474 128.135,4.524l-9.664,48.83c-31.016,-7.699 -60.434,-8.558 -85.203,-4.895c-17.897,5.468 -22,14.293 -21.102,24.781c18.587,33.606 77.76,44.347 98.159,60.774c20.944,16.867 25.879,44.925 21.877,82.282c-16.013,43.529 -47.072,62.931 -95.927,61.001c-86.723,-5.08 -157.957,-41.898 -212.963,-111.972l-42.224,0l-0,111.972l-57.994,-0l0,-223.943l57.994,-0l-0,67.411l54.673,-1.865c18.376,-2.695 26.347,-10.806 26.347,-36.296c0,-25.49 -6.658,-33.331 -26.347,-38.239Z" style="fill:#fff;"/><rect x="158.969" y="1159.91" width="57.994" height="223.943" style="fill:#fff;"/></g></g></svg>